<svg  fill="#b2becd" id="Capa_1" enable-background="new 0 0 511.793 511.793" height="512" viewBox="0 0 511.793 511.793" width="512" xmlns="http://www.w3.org/2000/svg"><path d="m270.897 285.793c0-8.276-6.724-15-15-15s-15 6.724-15 15c0 14.238 5.435 28.198 15 38.701 9.565-10.502 15-24.462 15-38.701z"/><path d="m313.925 120.793 59.995-91h-28.022c-29.312 0-56.66-6.563-79.102-18.97-35.216-19.467-76.641-11.513-102.716 14.576l-17.49 17.49 51.277 77.904z"/><path d="m135.897 511.793h240c41.353 0 75-34.647 75-76v-38.159c0-76.128-29.648-147.7-83.481-201.533l-45.308-45.308h-132.422l-45.308 45.308c-53.833 53.833-83.481 125.405-83.481 201.533v38.159c0 41.353 33.647 76 75 76zm98.818-166.029c-15.161-16.099-23.818-37.822-23.818-59.971 0-24.814 20.186-45 45-45s45 20.186 45 45c0 22.148-8.657 43.872-23.818 59.971l49.424 49.424-21.211 21.211-49.395-49.395-49.395 49.395-21.211-21.211z"/></svg>